<?xml version="1.0" standalone="no"?>
<!DOCTYPE svg PUBLIC "-//W3C//DTD SVG 20010904//EN"
 "http://www.w3.org/TR/2001/REC-SVG-20010904/DTD/svg10.dtd">
<svg version="1.0" xmlns="http://www.w3.org/2000/svg"
 width="300.000000pt" height="300.000000pt" viewBox="0 0 300.000000 300.000000"
 preserveAspectRatio="xMidYMid meet">
<metadata>
Created by potrace 1.10, written by Peter Selinger 2001-2011
</metadata>
<g transform="translate(0.000000,300.000000) scale(0.100000,-0.100000)"
fill="#000000" stroke="none">
<path d="M1198 2415 c-427 -128 -786 -239 -798 -245 -12 -6 -30 -26 -40 -43
-18 -29 -20 -52 -20 -264 l0 -232 277 -3 c257 -3 281 -5 312 -23 49 -29 73
-67 79 -123 5 -60 -17 -113 -62 -145 -31 -22 -37 -22 -431 -27 -398 -5 -400
-5 -438 -29 -51 -31 -81 -91 -74 -149 5 -50 29 -87 77 -120 l33 -22 606 0 607
0 44 -22 c60 -31 90 -77 90 -141 0 -56 -24 -104 -68 -133 -24 -17 -56 -20
-312 -24 -245 -4 -289 -7 -317 -22 -45 -25 -75 -73 -81 -128 -5 -54 10 -90 58
-135 l31 -30 940 -3 c907 -2 940 -2 977 17 87 44 102 84 102 271 l0 150 -185
0 c-172 0 -186 1 -205 20 -24 24 -25 38 -4 68 15 22 18 22 260 22 272 0 301 5
329 60 14 26 15 69 13 306 l-3 276 -33 29 -32 29 -354 0 c-329 0 -354 1 -369
18 -20 22 -22 63 -5 80 9 9 89 12 301 12 l288 0 -3 164 -3 164 -31 39 c-17 21
-46 47 -65 58 -33 19 -57 20 -877 25 l-844 5 544 59 c299 32 558 61 576 64
l32 5 0 119 c0 78 -5 130 -14 152 -16 38 -57 71 -101 80 -22 4 -229 -54 -807
-229z m1690 -1163 l2 -233 -373 3 -373 3 -43 28 c-140 93 -145 289 -10 389 60
45 85 47 449 45 l345 -2 3 -233z"/>
<path d="M2159 1321 c-54 -54 -32 -140 40 -162 101 -30 170 98 89 166 -42 35
-91 34 -129 -4z"/>
</g>
</svg>
